<?xml version="1.0" encoding="UTF-8" standalone="no"?>
<!DOCTYPE svg PUBLIC "-//W3C//DTD SVG 1.1//EN" "http://www.w3.org/Graphics/SVG/1.1/DTD/svg11.dtd">
<svg width="100%" height="100%" viewBox="0 0 100 125" version="1.1" xmlns="http://www.w3.org/2000/svg" xmlns:xlink="http://www.w3.org/1999/xlink" xml:space="preserve" xmlns:serif="http://www.serif.com/" style="fill-rule:evenodd;clip-rule:evenodd;stroke-linejoin:round;stroke-miterlimit:2;">
    <g transform="matrix(1.79508,0,0,1.79508,-38.7539,-26.8237)">
        <path d="M68.46,65.51C68.2,65.392 67.919,65.331 67.634,65.331C66.537,65.331 65.634,66.234 65.634,67.331C65.634,68.072 66.045,68.754 66.7,69.1C69.27,70.36 70.8,71.9 70.8,73.22C70.8,76.22 62.89,80.51 50.01,80.51C37.13,80.51 29.22,76.27 29.22,73.22C29.22,71.58 31.68,69.28 37.01,67.67L37.01,72C37.001,72.106 37.001,72.214 37.01,72.32C37.019,72.426 37.01,72.32 37.01,72.37C37.01,74.06 38.7,76.9 50.01,76.9C61.32,76.9 63.01,74.06 63.01,72.37L63.01,72.32C63.015,72.213 63.012,72.106 63,72L63,20C63,19.706 62.935,19.416 62.81,19.15C62.19,17.51 59.5,15.5 50,15.5C40.5,15.5 37.81,17.5 37.19,19.15C37.065,19.416 37,19.706 37,20L37,63.51C29.58,65.51 25.21,69.06 25.21,73.21C25.21,80.54 38,84.5 50,84.5C62,84.5 74.79,80.5 74.79,73.21C74.79,71.12 73.69,68.09 68.46,65.51ZM41,71.68L41,65.35C41.023,65.177 41.023,65.003 41,64.83L41,43C43.939,43.751 46.968,44.087 50,44C53.032,44.087 56.061,43.751 59,43L59,71.68C58,72.18 54.81,72.9 50,72.9C45.19,72.9 42,72.18 41,71.68ZM59,20.68L59,38.76C58,39.26 54.81,39.98 50,39.98C45.19,39.98 42,39.26 41,38.76L41,20.76C42,20.26 45.19,19.54 50,19.54C54.81,19.54 58,20.22 59,20.72L59,20.68Z" style="fill:white;fill-rule:nonzero;"/>
    </g>
</svg>
