<svg xmlns="http://www.w3.org/2000/svg" data-name="Layer 1" viewBox="0 0 100 125" x="0px" y="0px"><title>park iconsv2</title><path d="M68.46,65.51A2,2,0,0,0,66.7,69.1c2.57,1.26,4.1,2.8,4.1,4.12,0,3-7.91,7.29-20.79,7.29s-20.79-4.24-20.79-7.29c0-1.64,2.46-3.94,7.79-5.55V72a2,2,0,0,0,0,.32s0,0,0,.05c0,1.69,1.69,4.53,13,4.53s13-2.84,13-4.53c0,0,0,0,0-.05A2,2,0,0,0,63,72V20a2,2,0,0,0-.19-.85C62.19,17.51,59.5,15.5,50,15.5s-12.19,2-12.81,3.65A2,2,0,0,0,37,20V63.51c-7.42,2-11.79,5.55-11.79,9.7C25.21,80.54,38,84.5,50,84.5s24.79-4,24.79-11.29C74.79,71.12,73.69,68.09,68.46,65.51ZM41,71.68V65.35a2,2,0,0,0,0-.52V43a32.59,32.59,0,0,0,9,1,32.59,32.59,0,0,0,9-1V71.68c-1,.5-4.19,1.22-9,1.22S42,72.18,41,71.68Zm18-51V31.16c-1,.5-4.19,1.22-9,1.22A39.28,39.28,0,0,1,44.39,32a2,2,0,0,0-.58,4,43.28,43.28,0,0,0,6.19.42,32.58,32.58,0,0,0,9-1v3.34c-1,.5-4.19,1.22-9,1.22s-8-.72-9-1.22v-18c1-.5,4.19-1.22,9-1.22S58,20.22,59,20.72Z"/><text x="0" y="115" fill="#000000" font-size="5px" font-weight="bold" font-family="'Helvetica Neue', Helvetica, Arial-Unicode, Arial, Sans-serif">Created by Blair Adams</text><text x="0" y="120" fill="#000000" font-size="5px" font-weight="bold" font-family="'Helvetica Neue', Helvetica, Arial-Unicode, Arial, Sans-serif">from the Noun Project</text></svg>